<svg version="1.1" xmlns="http://www.w3.org/2000/svg" width="100" height="100" xmlns:xlink="http://www.w3.org/1999/xlink" viewbox="0 0 100 100"> <path fill="#477" d="M48.208,50.968c-4.445,3.866,4.375,6.699,7.497,4.515c6.072-4.247,0.816-9.922-4.915-9.532 c-6.8,0.463-7.803,7.913-2.94,11.641c4.423,3.391,13.004,3.407,16.201-1.62c4.517-7.102-7.295-13.229-12.628-13.864 c-7.274-0.866-16.314,7.25-15.541,14.677c1.957,18.775,31.665,10.376,41.661,4.788c5.005-2.798,9.677-7.331,6.159-13.156 c-3.621-5.997-12.202-9.17-18.382-11.509c-7.297-2.763-14.536-4.1-22.357-3.507c-10.495,0.794-13.537,9.491-10.516,18.613 c3.164,9.551,10.349,14.159,20.25,12.624c5.267-0.817,15.13-4.212,15.519-10.774c0.339-5.74-7.611-10.05-11.734-12.333 c-6.21-3.438-13.278-6.228-20.278-7.501c-7.607-1.384-15.227,1.695-17.262,9.541c-2.318,8.935,2.126,19.74,6.791,27.185 c5.17,8.253,16.829,13.906,26.431,10.509c10.2-3.609,15.1-18.22,3.734-23.831c-0.957-0.473-3.583,0.867-2.276,1.513 c5.834,2.88,7.425,9.364,4.529,15.014c-3.573,6.971-11.61,7.226-18.129,4.996c-9.092-3.11-13.83-11.761-16.684-20.334 c-2.246-6.747-4.306-18.386,3.72-22.187c6.662-3.155,16.691,1.706,22.692,4.396c5.042,2.261,15.926,7.021,15.519,13.897 c-0.276,4.672-7.831,6.976-11.35,7.901c-8.209,2.16-14.056-1.782-17.549-8.903c-3.002-6.12-4.334-15.706,3.984-18.138 c4.682-1.369,10.619-0.575,15.325,0.57c7.944,1.933,16.522,5.189,22.791,10.573c8.441,7.25-0.636,13.195-7.786,16.051 c-8.729,3.487-24.079,7.275-30.44-2.121c-4.595-6.787,2.488-16.84,10.102-16.72c5.261,0.083,13.522,5.968,10.978,11.86 c-2.435,5.639-12.586,0.94-13.768-3.41c-1.172-4.314,4.22-5.74,6.99-3.391c0.995,0.843,0.982,2.042,0.804,3.205 c-0.739,4.825-7.06,1.381-4.776-0.604C51.881,50.461,49.015,50.267,48.208,50.968L48.208,50.968z"/></svg>