<svg version="1.1" class="send" xmlns="http://www.w3.org/2000/svg" xmlns:xlink="http://www.w3.org/1999/xlink" x="0px" y="0px" viewBox="0 0 500 500"><path d="M391.756,129.894c-5.608,1.973-282.42,99.526-287.882,101.45c-4.631,1.63-5.658,5.625-0.163,7.81 c6.538,2.625,61.894,24.8,61.894,24.8l0,0l36.687,14.69c0,0,176.714-129.755,179.095-131.516c2.413-1.761,5.185,1.549,3.44,3.44 c-1.744,1.892-128.337,138.805-128.337,138.805v0.032l-7.371,8.201l9.768,5.251c0,0,75.818,40.828,81.231,43.729 c4.744,2.544,10.892,0.44,12.261-5.445c1.614-6.946,46.388-199.916,47.383-204.221C401.05,131.328,397.349,127.921,391.756,129.894 L391.756,129.894z M201.965,366.772c0,4.012,2.267,5.137,5.397,2.3c4.092-3.734,46.47-41.758,46.47-41.758l-51.867-26.805V366.772 L201.965,366.772z"/></svg>