<svg version="1.1" xmlns="http://www.w3.org/2000/svg" xmlns:xlink="http://www.w3.org/1999/xlink" x="0px" y="0px" viewBox="0 0 48 48" xml:space="preserve"><path d="M44,44c0,2.21-1.79,4-4,4H8c-2.21,0-4-1.79-4-4V24c0-2.21,1.79-4,4-4h24v-7c0-4.42-3.58-8-8-8s-8,3.58-8,8v0.5 c0,1.38-1.12,2.5-2.5,2.5S11,14.88,11,13.5V13c0-7.18,5.82-13,13-13s13,5.82,13,13v7h3c2.21,0,4,1.79,4,4V44z M28,31 c0-2.21-1.79-4-4-4s-4,1.79-4,4c0,1.41,0.73,2.65,1.83,3.359c0,0-0.391,2.36-0.83,5.141c0,0.83,0.67,1.5,1.5,1.5h3 c0.83,0,1.5-0.67,1.5-1.5l-0.83-5.141C27.27,33.65,28,32.41,28,31z"/></svg>